<svg width="137" height="32" viewBox="0 0 137 32" fill="none" xmlns="http://www.w3.org/2000/svg">
<path d="M28 4V6.66667C28 19.5027 20.836 25.3333 12 25.3333H9.464C9.74667 21.3173 10.9973 18.8867 14.2613 15.9987C15.8667 14.5787 15.7307 13.7587 14.94 14.2293C9.49467 17.4693 6.79067 21.848 6.67067 28.84L6.66667 29.3333H4C4 27.516 4.15467 25.8667 4.46133 24.3573C4.15467 22.632 4 20.2907 4 17.3333C4 9.96933 9.96933 4 17.3333 4C20 4 22.6667 5.33333 28 4Z" fill="#E6E6E6"/>
<path d="M52.528 25L51.016 20.464H44.752L43.288 25H40.528L46.24 8.248H49.648L55.36 25H52.528ZM47.944 10.744H47.824L45.4 18.136H50.344L47.944 10.744ZM68.615 22.456H68.519C68.343 23.272 67.863 23.952 67.079 24.496C66.311 25.024 65.287 25.288 64.007 25.288C63.015 25.288 62.095 25.104 61.247 24.736C60.399 24.352 59.663 23.8 59.039 23.08C58.431 22.344 57.951 21.44 57.599 20.368C57.263 19.28 57.095 18.032 57.095 16.624C57.095 15.232 57.271 14 57.623 12.928C57.975 11.84 58.471 10.928 59.111 10.192C59.751 9.456 60.519 8.904 61.415 8.536C62.311 8.152 63.311 7.96 64.415 7.96C65.919 7.96 67.191 8.296 68.231 8.968C69.271 9.624 70.079 10.544 70.655 11.728L68.447 13.024C68.127 12.24 67.631 11.608 66.959 11.128C66.287 10.632 65.439 10.384 64.415 10.384C63.087 10.384 62.015 10.808 61.199 11.656C60.399 12.504 59.999 13.704 59.999 15.256V17.992C59.999 19.544 60.399 20.744 61.199 21.592C62.015 22.44 63.087 22.864 64.415 22.864C64.943 22.864 65.447 22.8 65.927 22.672C66.407 22.528 66.823 22.328 67.175 22.072C67.543 21.8 67.831 21.472 68.039 21.088C68.263 20.688 68.375 20.224 68.375 19.696V18.4H64.919V16.072H70.991V25H68.615V22.456ZM77.8729 25H75.1609V8.248H82.3849C83.8889 8.248 85.0729 8.704 85.9369 9.616C86.8009 10.512 87.2329 11.736 87.2329 13.288C87.2329 14.488 86.9529 15.488 86.3929 16.288C85.8489 17.072 85.0409 17.624 83.9689 17.944L87.5929 25H84.5689L81.2089 18.232H77.8729V25ZM82.1929 15.952C82.8809 15.952 83.4169 15.776 83.8009 15.424C84.1849 15.056 84.3769 14.536 84.3769 13.864V12.712C84.3769 12.04 84.1849 11.528 83.8009 11.176C83.4169 10.808 82.8809 10.624 82.1929 10.624H77.8729V15.952H82.1929ZM97.5331 25.288C96.4451 25.288 95.4531 25.104 94.5571 24.736C93.6771 24.352 92.9171 23.8 92.2771 23.08C91.6531 22.344 91.1651 21.44 90.8131 20.368C90.4771 19.28 90.3091 18.032 90.3091 16.624C90.3091 15.216 90.4771 13.976 90.8131 12.904C91.1651 11.816 91.6531 10.912 92.2771 10.192C92.9171 9.456 93.6771 8.904 94.5571 8.536C95.4531 8.152 96.4451 7.96 97.5331 7.96C98.6211 7.96 99.6051 8.152 100.485 8.536C101.381 8.904 102.141 9.456 102.765 10.192C103.405 10.912 103.893 11.816 104.229 12.904C104.581 13.976 104.757 15.216 104.757 16.624C104.757 18.032 104.581 19.28 104.229 20.368C103.893 21.44 103.405 22.344 102.765 23.08C102.141 23.8 101.381 24.352 100.485 24.736C99.6051 25.104 98.6211 25.288 97.5331 25.288ZM97.5331 22.864C98.1731 22.864 98.7571 22.752 99.2851 22.528C99.8291 22.304 100.285 21.984 100.653 21.568C101.037 21.136 101.333 20.616 101.541 20.008C101.749 19.4 101.853 18.712 101.853 17.944V15.304C101.853 14.536 101.749 13.848 101.541 13.24C101.333 12.632 101.037 12.12 100.653 11.704C100.285 11.272 99.8291 10.944 99.2851 10.72C98.7571 10.496 98.1731 10.384 97.5331 10.384C96.8771 10.384 96.2851 10.496 95.7571 10.72C95.2291 10.944 94.7731 11.272 94.3891 11.704C94.0211 12.12 93.7331 12.632 93.5251 13.24C93.3171 13.848 93.2131 14.536 93.2131 15.304V17.944C93.2131 18.712 93.3171 19.4 93.5251 20.008C93.7331 20.616 94.0211 21.136 94.3891 21.568C94.7731 21.984 95.2291 22.304 95.7571 22.528C96.2851 22.752 96.8771 22.864 97.5331 22.864ZM108.539 25V8.248H119.267V10.648H111.251V15.304H118.523V17.704H111.251V22.6H119.267V25H108.539ZM135.934 25H132.742L128.686 18.328H128.614L124.606 25H121.606L127.03 16.432L121.798 8.248H124.99L128.806 14.488H128.854L132.718 8.248H135.718L130.438 16.408L135.934 25Z" fill="#E6E6E6"/>
</svg>
