<svg width="145" height="96" viewBox="0 0 145 96" fill="none" xmlns="http://www.w3.org/2000/svg">
<path d="M35 33V36.3333C35 52.3783 26.045 59.6667 15 59.6667H11.83C12.1833 54.6467 13.7467 51.6083 17.8267 47.9983C19.8333 46.2233 19.6633 45.1983 18.675 45.7867C11.8683 49.8367 8.48833 55.31 8.33833 64.05L8.33333 64.6667H5C5 62.395 5.19333 60.3333 5.57667 58.4467C5.19333 56.29 5 53.3633 5 49.6667C5 40.4617 12.4617 33 21.6667 33C25 33 28.3333 34.6667 35 33Z" fill="#183C48"/>
<path d="M60.528 57L59.016 52.464H52.752L51.288 57H48.528L54.24 40.248H57.648L63.36 57H60.528ZM55.944 42.744H55.824L53.4 50.136H58.344L55.944 42.744ZM76.615 54.456H76.519C76.343 55.272 75.863 55.952 75.079 56.496C74.311 57.024 73.287 57.288 72.007 57.288C71.015 57.288 70.095 57.104 69.247 56.736C68.399 56.352 67.663 55.8 67.039 55.08C66.431 54.344 65.951 53.44 65.599 52.368C65.263 51.28 65.095 50.032 65.095 48.624C65.095 47.232 65.271 46 65.623 44.928C65.975 43.84 66.471 42.928 67.111 42.192C67.751 41.456 68.519 40.904 69.415 40.536C70.311 40.152 71.311 39.96 72.415 39.96C73.919 39.96 75.191 40.296 76.231 40.968C77.271 41.624 78.079 42.544 78.655 43.728L76.447 45.024C76.127 44.24 75.631 43.608 74.959 43.128C74.287 42.632 73.439 42.384 72.415 42.384C71.087 42.384 70.015 42.808 69.199 43.656C68.399 44.504 67.999 45.704 67.999 47.256V49.992C67.999 51.544 68.399 52.744 69.199 53.592C70.015 54.44 71.087 54.864 72.415 54.864C72.943 54.864 73.447 54.8 73.927 54.672C74.407 54.528 74.823 54.328 75.175 54.072C75.543 53.8 75.831 53.472 76.039 53.088C76.263 52.688 76.375 52.224 76.375 51.696V50.4H72.919V48.072H78.991V57H76.615V54.456ZM85.8729 57H83.1609V40.248H90.3849C91.8889 40.248 93.0729 40.704 93.9369 41.616C94.8009 42.512 95.2329 43.736 95.2329 45.288C95.2329 46.488 94.9529 47.488 94.3929 48.288C93.8489 49.072 93.0409 49.624 91.9689 49.944L95.5929 57H92.5689L89.2089 50.232H85.8729V57ZM90.1929 47.952C90.8809 47.952 91.4169 47.776 91.8009 47.424C92.1849 47.056 92.3769 46.536 92.3769 45.864V44.712C92.3769 44.04 92.1849 43.528 91.8009 43.176C91.4169 42.808 90.8809 42.624 90.1929 42.624H85.8729V47.952H90.1929ZM105.533 57.288C104.445 57.288 103.453 57.104 102.557 56.736C101.677 56.352 100.917 55.8 100.277 55.08C99.6531 54.344 99.1651 53.44 98.8131 52.368C98.4771 51.28 98.3091 50.032 98.3091 48.624C98.3091 47.216 98.4771 45.976 98.8131 44.904C99.1651 43.816 99.6531 42.912 100.277 42.192C100.917 41.456 101.677 40.904 102.557 40.536C103.453 40.152 104.445 39.96 105.533 39.96C106.621 39.96 107.605 40.152 108.485 40.536C109.381 40.904 110.141 41.456 110.765 42.192C111.405 42.912 111.893 43.816 112.229 44.904C112.581 45.976 112.757 47.216 112.757 48.624C112.757 50.032 112.581 51.28 112.229 52.368C111.893 53.44 111.405 54.344 110.765 55.08C110.141 55.8 109.381 56.352 108.485 56.736C107.605 57.104 106.621 57.288 105.533 57.288ZM105.533 54.864C106.173 54.864 106.757 54.752 107.285 54.528C107.829 54.304 108.285 53.984 108.653 53.568C109.037 53.136 109.333 52.616 109.541 52.008C109.749 51.4 109.853 50.712 109.853 49.944V47.304C109.853 46.536 109.749 45.848 109.541 45.24C109.333 44.632 109.037 44.12 108.653 43.704C108.285 43.272 107.829 42.944 107.285 42.72C106.757 42.496 106.173 42.384 105.533 42.384C104.877 42.384 104.285 42.496 103.757 42.72C103.229 42.944 102.773 43.272 102.389 43.704C102.021 44.12 101.733 44.632 101.525 45.24C101.317 45.848 101.213 46.536 101.213 47.304V49.944C101.213 50.712 101.317 51.4 101.525 52.008C101.733 52.616 102.021 53.136 102.389 53.568C102.773 53.984 103.229 54.304 103.757 54.528C104.285 54.752 104.877 54.864 105.533 54.864ZM116.539 57V40.248H127.267V42.648H119.251V47.304H126.523V49.704H119.251V54.6H127.267V57H116.539ZM143.934 57H140.742L136.686 50.328H136.614L132.606 57H129.606L135.03 48.432L129.798 40.248H132.99L136.806 46.488H136.854L140.718 40.248H143.718L138.438 48.408L143.934 57Z" fill="#183C48"/>
</svg>
